HIERARCHY
ROOT Hip
{
	OFFSET 0 1.131 0.0052
	CHANNELS 6 Xposition Yposition Zposition Xrotation Yrotation Zrotation
	JOINT Abdomen
	{
		OFFSET 0 -0.047353 -0.05
		CHANNELS 3 Xrotation Zrotation Yrotation
		JOINT Chest
		{
			OFFSET 0 0.132153 0.007439
			CHANNELS 3 Xrotation Zrotation Yrotation
			JOINT Neck
			{
				OFFSET 0 0.3078 0.006161
				CHANNELS 3 Xrotation Zrotation Yrotation
				JOINT Head_comp
				{
					OFFSET 0 0.0884 0.013
					CHANNELS 3 Xrotation Yrotation Zrotation
					End Site
					{
						OFFSET -0 0.156 0.0624
					}
				}
			}
			JOINT Left_Collar
			{
				OFFSET 0.02282 0.250342 0.017193
				CHANNELS 2 Yrotation Zrotation
				JOINT Left_Shoulder
				{
					OFFSET 0.15421 0 0
					CHANNELS 3 Xrotation Yrotation Zrotation
					JOINT Left_Forearm
					{
						OFFSET 0.265212 0 0
						CHANNELS 2 Yrotation Xrotation
						JOINT Left_Hand
						{
							OFFSET 0.27571 0 0
							CHANNELS 2 Zrotation Yrotation
							JOINT L1ProxPhalanx
							{
								OFFSET 0.014142 0.001733 0.014142
								CHANNELS 3 Yrotation Zrotation Xrotation
								JOINT L1MidPhalanx
								{
									OFFSET 0.04 0 0
									CHANNELS 1 Zrotation
									JOINT L1DistPhalanx
									{
										OFFSET 0.035 0 0
										CHANNELS 1 Zrotation
										End Site
										{
											OFFSET 0.029 -0 -0
										}
									}
								}
							}
							JOINT L2ProxPhalanx
							{
								OFFSET 0.0821037 0.001578 0.0219996
								CHANNELS 2 Yrotation Zrotation
								JOINT L2MidPhalanx
								{
									OFFSET 0.04 0 0
									CHANNELS 1 Zrotation
									JOINT L2DistPhalanx
									{
										OFFSET 0.028 0 0
										CHANNELS 1 Zrotation
										End Site
										{
											OFFSET 0.02 -0 -0
										}
									}
								}
							}
							JOINT L3ProxPhalanx
							{
								OFFSET 0.083 0 0
								CHANNELS 2 Yrotation Zrotation
								JOINT L3MidPhalanx
								{
									OFFSET 0.053 0 0
									CHANNELS 1 Zrotation
									JOINT L3DistPhalanx
									{
										OFFSET 0.03 0 0
										CHANNELS 1 Zrotation
										End Site
										{
											OFFSET 0.023 -0 -0
										}
									}
								}
							}
							JOINT L4ProxPhalanx
							{
								OFFSET 0.077274 -0.000761 -0.0207055
								CHANNELS 2 Yrotation Zrotation
								JOINT L4MidPhalanx
								{
									OFFSET 0.05 0 0
									CHANNELS 1 Zrotation
									JOINT L4DistPhalanx
									{
										OFFSET 0.03 0 0
										CHANNELS 1 Zrotation
										End Site
										{
											OFFSET 0.023 -0 -0
										}
									}
								}
							}
							JOINT L5ProxPhalanx
							{
								OFFSET 0.0675499 -0.001644 -0.039
								CHANNELS 2 Yrotation Zrotation
								JOINT L5MidPhalanx
								{
									OFFSET 0.04 0 0
									CHANNELS 1 Zrotation
									JOINT L5DistPhalanx
									{
										OFFSET 0.021 0 0
										CHANNELS 1 Zrotation
										End Site
										{
											OFFSET 0.022 -0 -0
										}
									}
								}
							}
						}
					}
				}
			}
			JOINT Right_Collar
			{
				OFFSET -0.02282 0.250342 0.017193
				CHANNELS 2 Yrotation Zrotation
				JOINT Right_Shoulder
				{
					OFFSET -0.15421 0 0
					CHANNELS 3 Xrotation Yrotation Zrotation
					JOINT Right_Forearm
					{
						OFFSET -0.265212 0 0
						CHANNELS 2 Yrotation Xrotation
						JOINT Right_Hand
						{
							OFFSET -0.27571 3e-006 0
							CHANNELS 2 Zrotation Yrotation
							JOINT R1ProxPhalanx
							{
								OFFSET -0.014142 0.001733 0.014142
								CHANNELS 3 Yrotation Zrotation Xrotation
								JOINT R1MidPhalanx
								{
									OFFSET -0.04 0 0
									CHANNELS 1 Zrotation
									JOINT R1DistPhalanx
									{
										OFFSET -0.035 0 0
										CHANNELS 1 Zrotation
										End Site
										{
											OFFSET -0.029 -0 -0
										}
									}
								}
							}
							JOINT R2ProxPhalanx
							{
								OFFSET -0.0821037 0.001578 0.0219996
								CHANNELS 2 Yrotation Zrotation
								JOINT R2MidPhalanx
								{
									OFFSET -0.04 0 0
									CHANNELS 1 Zrotation
									JOINT R2DistPhalanx
									{
										OFFSET -0.028 0 0
										CHANNELS 1 Zrotation
										End Site
										{
											OFFSET -0.02 -0 -0
										}
									}
								}
							}
							JOINT R3ProxPhalanx
							{
								OFFSET -0.083 0 0
								CHANNELS 2 Yrotation Zrotation
								JOINT R3MidPhalanx
								{
									OFFSET -0.053 0 0
									CHANNELS 1 Zrotation
									JOINT R3DistPhalanx
									{
										OFFSET -0.03 0 0
										CHANNELS 1 Zrotation
										End Site
										{
											OFFSET -0.023 -0 -0
										}
									}
								}
							}
							JOINT R4ProxPhalanx
							{
								OFFSET -0.077274 -0.000761 -0.0207055
								CHANNELS 2 Yrotation Zrotation
								JOINT R4MidPhalanx
								{
									OFFSET -0.05 0 0
									CHANNELS 1 Zrotation
									JOINT R4DistPhalanx
									{
										OFFSET -0.03 0 0
										CHANNELS 1 Zrotation
										End Site
										{
											OFFSET -0.023 -0 -0
										}
									}
								}
							}
							JOINT R5ProxPhalanx
							{
								OFFSET -0.0675499 -0.001644 -0.039
								CHANNELS 2 Yrotation Zrotation
								JOINT R5MidPhalanx
								{
									OFFSET -0.04 0 0
									CHANNELS 1 Zrotation
									JOINT R5DistPhalanx
									{
										OFFSET -0.021 0 0
										CHANNELS 1 Zrotation
										End Site
										{
											OFFSET -0.022 -0 -0
										}
									}
								}
							}
						}
					}
				}
			}
		}
	}
	JOINT Left_Thigh
	{
		OFFSET 0.1118 -0.1612 -0.0442
		CHANNELS 3 Xrotation Zrotation Yrotation
		JOINT Left_Shin
		{
			OFFSET 0 -0.477856 0
			CHANNELS 1 Xrotation
			JOINT Left_Foot
			{
				OFFSET 0 -0.431952 0
				CHANNELS 2 Xrotation Zrotation
				JOINT Left_Toe
				{
					OFFSET 0 -0.0442 0.119
					CHANNELS 1 Xrotation
					End Site
					{
						OFFSET -0 -0 0.07
					}
				}
			}
		}
	}
	JOINT Right_Thigh
	{
		OFFSET -0.1118 -0.1612 -0.0442
		CHANNELS 3 Xrotation Zrotation Yrotation
		JOINT Right_Shin
		{
			OFFSET 0 -0.477856 0
			CHANNELS 1 Xrotation
			JOINT Right_Foot
			{
				OFFSET 0 -0.431952 0
				CHANNELS 2 Xrotation Zrotation
				JOINT Right_Toe
				{
					OFFSET 0 -0.0442 0.119
					CHANNELS 1 Xrotation
					End Site
					{
						OFFSET -0 -0 0.07
					}
				}
			}
		}
	}
}
MOTION
Frames: 7
Frame Time: 0.009975
-0.101136 -0.0600553 0.0378164 -4.17714e-013 -7.21351e-009 -5.10967e-006 0 -0 0 0 -0 0 0 -0 0 -0.711859 0.2904 5.46836e-012 -3.63194 -8.78856 -6.14668 -16.1435 -33.2948 -59.8724 14.6719 13.1003 -4.56125 -52.3814 -45.2816 79.8606 -7.19454 -9.6749 -8.19622 -13.145 -24.3915 -14.2614 -0.34848 -11.5002 -11.8637 -10.0676 3.12303 -9.79699 -20.9596 -11.8277 12.1775 -7.025 -39.9536 0.564177 4.6621 11.306 -18.0684 29.7841 29.2251 29.4941 19.1144 -17.6617 5.67469 70.2882 62.0194 84.2195 9.86519 5.17547 9.55006 11.5728 19.998 17.6921 -1.01305 -0.959303 6.29503 3.15854 1.17611 -2.01544 3.6274 3.74869 -7.77888 -4.00669 34.8696 -36.3818 -0.0859492 -0.671552 0.00100727 0.0240216 0.0619217 0.671557 0 -0.0745445 -0.671552 0.000873599 1.4229e-006 0.0745379 0.671557 0 
-0.101073 -0.0600558 0.0380201 -8.96379e-012 -6.0765e-009 -5.10967e-006 0 -0 0 0 -0 0 0 -0 0 -0.711875 0.290232 5.92348e-012 -3.56162 -8.69384 -5.28778 -15.5701 -33.7203 -61.3448 14.3878 12.8467 -4.47294 -51.7713 -44.6824 79.7679 -7.09948 -9.7754 -8.13513 -13.2746 -24.6637 -14.2321 -0.360192 -12.0089 -12.1132 -10.3816 3.35403 -10.2751 -21.6355 -12.1216 12.3796 -7.47065 -39.9759 -0.92265 4.6621 11.306 -18.0684 29.7841 29.2251 29.4941 19.1144 -17.6617 5.67469 70.2882 62.0194 84.2195 9.86519 5.17547 9.55006 11.5728 19.998 17.6921 -1.01305 -0.959303 6.29503 3.15854 1.17611 -2.01544 3.6274 3.74869 -7.77888 -4.00669 34.8696 -36.3818 -0.0731183 -0.675552 0.000861979 0.0240216 0.0490916 0.675558 0 -0.0617127 -0.675552 0.000727504 8.45236e-007 0.0617076 0.675558 0 
-0.101007 -0.0600564 0.0382274 1.32054e-011 -4.91909e-009 -5.10968e-006 0 -0 0 0 -0 0 0 -0 0 -0.711891 0.290057 6.39273e-012 -3.48994 -8.59729 -4.41322 -15.0155 -34.165 -62.7868 14.0983 12.5882 -4.38293 -51.1612 -44.0832 79.6752 -7.00442 -9.87591 -8.07404 -13.4042 -24.9359 -14.2027 -0.371904 -12.5177 -12.3627 -10.6955 3.58504 -10.7533 -22.3114 -12.4155 12.5817 -7.91629 -39.9981 -2.40948 4.6621 11.306 -18.0684 29.7841 29.2251 29.4941 19.1144 -17.6617 5.67469 70.2882 62.0194 84.2195 9.86519 5.17547 9.55006 11.5728 19.998 17.6921 -1.01305 -0.959303 6.29503 3.15854 1.17611 -2.01544 3.6274 3.74869 -7.77888 -4.00669 34.8696 -36.3818 -0.0600669 -0.679731 0.000712471 0.0240216 0.036041 0.679737 0 -0.0486613 -0.679731 0.000577163 1.70755e-006 0.0486558 0.679737 0 
-0.100937 -0.060057 0.0384379 -7.42491e-012 -3.74256e-009 -5.10969e-006 0 -0 0 0 -0 0 0 -0 0 -0.711907 0.289874 6.87801e-012 -3.41697 -8.49899 -3.52356 -14.4808 -34.6291 -64.1965 13.8035 12.325 -4.29129 -50.5511 -43.484 79.5825 -6.90937 -9.97641 -8.01295 -13.5337 -25.2082 -14.1734 -0.383616 -13.0264 -12.6122 -11.0095 3.81605 -11.2315 -22.9874 -12.7094 12.7838 -8.36193 -40.0204 -3.89631 4.6621 11.306 -18.0684 29.7841 29.2251 29.4941 19.1144 -17.6617 5.67469 70.2882 62.0194 84.2195 9.86519 5.17547 9.55006 11.5728 19.998 17.6921 -1.01305 -0.959303 6.29503 3.15854 1.17611 -2.01544 3.6274 3.74869 -7.77888 -4.00669 34.8696 -36.3818 -0.0468084 -0.684089 0.000558733 0.0240216 0.0227834 0.684094 0 -0.0354027 -0.684089 0.000422559 2.41484e-006 0.0353978 0.684094 0 
-0.100865 -0.0600578 0.0386515 7.75212e-012 -2.54804e-009 -5.10969e-006 0 -0 0 0 -0 0 0 -0 0 -0.711924 0.289682 7.37619e-012 -3.34277 -8.39903 -2.61941 -13.9672 -35.1124 -65.5724 13.5038 12.0573 -4.1981 -49.941 -42.8848 79.4898 -6.81431 -10.0769 -7.95186 -13.6633 -25.4804 -14.144 -0.395327 -13.5352 -12.8616 -11.3234 4.04706 -11.7096 -23.6633 -13.0033 12.9859 -8.80758 -40.0427 -5.38313 4.6621 11.306 -18.0684 29.7841 29.2251 29.4941 19.1144 -17.6617 5.67469 70.2882 62.0194 84.2195 9.86519 5.17547 9.55006 11.5728 19.998 17.6921 -1.01305 -0.959303 6.29503 3.15854 1.17611 -2.01544 3.6274 3.74869 -7.77888 -4.00669 34.8696 -36.3818 -0.0333554 -0.688624 0.000400746 0.0240216 0.00933137 0.68863 0 -0.0219498 -0.688624 0.000263666 1.2376e-006 0.0219469 0.68863 0 
-0.100791 -0.0600586 0.038868 1.99584e-011 -1.33668e-009 -5.10969e-006 0 -0 0 0 -0 0 0 -0 0 -0.711942 0.289483 7.88887e-012 -3.26741 -8.2975 -1.70139 -13.4756 -35.6151 -66.9133 13.1993 11.7855 -4.10345 -49.3308 -42.2856 79.3971 -6.71925 -10.1774 -7.89078 -13.7928 -25.7526 -14.1147 -0.407039 -14.0439 -13.1111 -11.6374 4.27807 -12.1878 -24.3392 -13.2971 13.188 -9.25322 -40.0649 -6.86996 4.6621 11.306 -18.0684 29.7841 29.2251 29.4941 19.1144 -17.6617 5.67469 70.2882 62.0194 84.2195 9.86519 5.17547 9.55006 11.5728 19.998 17.6921 -1.01305 -0.959303 6.29503 3.15854 1.17611 -2.01544 3.6274 3.74869 -7.77888 -4.00669 34.8696 -36.3818 -0.0197203 -0.693338 0.000238486 0.0240216 -0.00430282 0.693343 0 -0.00831461 -0.693338 0.000100459 8.2816e-007 0.00831317 0.693343 0 
-0.100713 -0.0600596 0.0390872 -2.63396e-011 -1.09517e-010 -5.1097e-006 0 -0 0 0 -0 0 0 -0 0 -0.71196 0.289275 8.41312e-012 -3.19093 -8.19446 -0.77021 -13.0071 -36.1371 -68.2176 12.8904 11.5097 -4.00741 -48.7207 -41.6864 79.3044 -6.62419 -10.2779 -7.82969 -13.9224 -26.0248 -14.0854 -0.418751 -14.5527 -13.3606 -11.9513 4.50908 -12.666 -25.0151 -13.591 13.3901 -9.69886 -40.0872 -8.35679 4.6621 11.306 -18.0684 29.7841 29.2251 29.4941 19.1144 -17.6617 5.67469 70.2882 62.0194 84.2195 9.86519 5.17547 9.55006 11.5728 19.998 17.6921 -1.01305 -0.959303 6.29503 3.15854 1.17611 -2.01544 3.6274 3.74869 -7.77888 -4.00669 34.8696 -36.3818 -0.00591477 -0.698229 7.19259e-005 0.0240216 -0.0181073 0.698234 0 0.00549089 -0.698229 -6.70724e-005 1.70755e-006 -0.00549254 0.698234 0 
